<svg width="782" height="34" viewBox="0 0 782 34" fill="none" xmlns="http://www.w3.org/2000/svg">
<circle cx="3.62107" cy="3.62107" r="3.62107" fill="white" fill-opacity="0.5"/>
<circle cx="21.485" cy="3.62107" r="3.62107" fill="white" fill-opacity="0.5"/>
<circle cx="39.349" cy="3.62107" r="3.62107" fill="white" fill-opacity="0.5"/>
<circle cx="57.213" cy="3.62107" r="3.62107" fill="white" fill-opacity="0.5"/>
<circle cx="75.0769" cy="3.62107" r="3.62107" fill="white" fill-opacity="0.5"/>
<circle cx="92.9408" cy="3.62107" r="3.62107" fill="white" fill-opacity="0.5"/>
<circle cx="110.805" cy="3.62107" r="3.62107" fill="white" fill-opacity="0.5"/>
<circle cx="128.669" cy="3.62107" r="3.62107" fill="white" fill-opacity="0.5"/>
<circle cx="3.62107" cy="16.6571" r="3.62107" fill="white" fill-opacity="0.5"/>
<circle cx="21.485" cy="16.6571" r="3.62107" fill="white" fill-opacity="0.5"/>
<circle cx="39.349" cy="16.6571" r="3.62107" fill="white" fill-opacity="0.5"/>
<circle cx="57.213" cy="16.6571" r="3.62107" fill="white" fill-opacity="0.5"/>
<circle cx="75.0769" cy="16.6571" r="3.62107" fill="white" fill-opacity="0.5"/>
<circle cx="92.9408" cy="16.6571" r="3.62107" fill="white" fill-opacity="0.5"/>
<circle cx="110.805" cy="16.6571" r="3.62107" fill="white" fill-opacity="0.5"/>
<circle cx="128.669" cy="16.6571" r="3.62107" fill="white" fill-opacity="0.5"/>
<circle cx="3.62107" cy="29.6925" r="3.62107" fill="white" fill-opacity="0.5"/>
<circle cx="21.485" cy="29.6925" r="3.62107" fill="white" fill-opacity="0.5"/>
<circle cx="39.349" cy="29.6925" r="3.62107" fill="white" fill-opacity="0.5"/>
<circle cx="57.213" cy="29.6925" r="3.62107" fill="white" fill-opacity="0.5"/>
<circle cx="75.0769" cy="29.6925" r="3.62107" fill="white" fill-opacity="0.5"/>
<circle cx="92.9408" cy="29.6925" r="3.62107" fill="white" fill-opacity="0.5"/>
<circle cx="110.805" cy="29.6925" r="3.62107" fill="white" fill-opacity="0.5"/>
<circle cx="128.669" cy="29.6925" r="3.62107" fill="white" fill-opacity="0.5"/>
<circle cx="145.65" cy="3.62107" r="3.62107" fill="white" fill-opacity="0.5"/>
<circle cx="163.514" cy="3.62107" r="3.62107" fill="white" fill-opacity="0.5"/>
<circle cx="181.378" cy="3.62107" r="3.62107" fill="white" fill-opacity="0.5"/>
<circle cx="199.242" cy="3.62107" r="3.62107" fill="white" fill-opacity="0.5"/>
<circle cx="217.106" cy="3.62107" r="3.62107" fill="white" fill-opacity="0.5"/>
<circle cx="234.97" cy="3.62107" r="3.62107" fill="white" fill-opacity="0.5"/>
<circle cx="252.834" cy="3.62107" r="3.62107" fill="white" fill-opacity="0.5"/>
<circle cx="270.698" cy="3.62107" r="3.62107" fill="white" fill-opacity="0.5"/>
<circle cx="145.65" cy="16.6571" r="3.62107" fill="white" fill-opacity="0.5"/>
<circle cx="163.514" cy="16.6571" r="3.62107" fill="white" fill-opacity="0.5"/>
<circle cx="181.378" cy="16.6571" r="3.62107" fill="white" fill-opacity="0.5"/>
<circle cx="199.242" cy="16.6571" r="3.62107" fill="white" fill-opacity="0.5"/>
<circle cx="217.106" cy="16.6571" r="3.62107" fill="white" fill-opacity="0.5"/>
<circle cx="234.97" cy="16.6571" r="3.62107" fill="white" fill-opacity="0.5"/>
<circle cx="252.834" cy="16.6571" r="3.62107" fill="white" fill-opacity="0.5"/>
<circle cx="270.698" cy="16.6571" r="3.62107" fill="white" fill-opacity="0.5"/>
<circle cx="145.65" cy="29.6925" r="3.62107" fill="white" fill-opacity="0.5"/>
<circle cx="163.514" cy="29.6925" r="3.62107" fill="white" fill-opacity="0.5"/>
<circle cx="181.378" cy="29.6925" r="3.62107" fill="white" fill-opacity="0.5"/>
<circle cx="199.242" cy="29.6925" r="3.62107" fill="white" fill-opacity="0.5"/>
<circle cx="217.106" cy="29.6925" r="3.62107" fill="white" fill-opacity="0.5"/>
<circle cx="234.97" cy="29.6925" r="3.62107" fill="white" fill-opacity="0.5"/>
<circle cx="252.834" cy="29.6925" r="3.62107" fill="white" fill-opacity="0.5"/>
<circle cx="270.698" cy="29.6925" r="3.62107" fill="white" fill-opacity="0.5"/>
<circle cx="289.302" cy="3.62107" r="3.62107" fill="white" fill-opacity="0.5"/>
<circle cx="307.166" cy="3.62107" r="3.62107" fill="white" fill-opacity="0.5"/>
<circle cx="325.03" cy="3.62107" r="3.62107" fill="white" fill-opacity="0.5"/>
<circle cx="342.894" cy="3.62107" r="3.62107" fill="white" fill-opacity="0.5"/>
<circle cx="360.758" cy="3.62107" r="3.62107" fill="white" fill-opacity="0.5"/>
<circle cx="378.622" cy="3.62107" r="3.62107" fill="white" fill-opacity="0.5"/>
<circle cx="396.486" cy="3.62107" r="3.62107" fill="white" fill-opacity="0.5"/>
<circle cx="414.35" cy="3.62107" r="3.62107" fill="white" fill-opacity="0.5"/>
<circle cx="289.302" cy="16.6571" r="3.62107" fill="white" fill-opacity="0.5"/>
<circle cx="307.166" cy="16.6571" r="3.62107" fill="white" fill-opacity="0.5"/>
<circle cx="325.03" cy="16.6571" r="3.62107" fill="white" fill-opacity="0.5"/>
<circle cx="342.894" cy="16.6571" r="3.62107" fill="white" fill-opacity="0.5"/>
<circle cx="360.758" cy="16.6571" r="3.62107" fill="white" fill-opacity="0.5"/>
<circle cx="378.622" cy="16.6571" r="3.62107" fill="white" fill-opacity="0.5"/>
<circle cx="396.486" cy="16.6571" r="3.62107" fill="white" fill-opacity="0.5"/>
<circle cx="414.35" cy="16.6571" r="3.62107" fill="white" fill-opacity="0.5"/>
<circle cx="289.302" cy="29.6925" r="3.62107" fill="white" fill-opacity="0.5"/>
<circle cx="307.166" cy="29.6925" r="3.62107" fill="white" fill-opacity="0.5"/>
<circle cx="325.03" cy="29.6925" r="3.62107" fill="white" fill-opacity="0.5"/>
<circle cx="342.894" cy="29.6925" r="3.62107" fill="white" fill-opacity="0.5"/>
<circle cx="360.758" cy="29.6925" r="3.62107" fill="white" fill-opacity="0.5"/>
<circle cx="378.622" cy="29.6925" r="3.62107" fill="white" fill-opacity="0.5"/>
<circle cx="396.486" cy="29.6925" r="3.62107" fill="white" fill-opacity="0.5"/>
<circle cx="414.35" cy="29.6925" r="3.62107" fill="white" fill-opacity="0.5"/>
<circle cx="431.331" cy="3.62107" r="3.62107" fill="white" fill-opacity="0.5"/>
<circle cx="449.195" cy="3.62107" r="3.62107" fill="white" fill-opacity="0.5"/>
<circle cx="467.059" cy="3.62107" r="3.62107" fill="white" fill-opacity="0.5"/>
<circle cx="484.923" cy="3.62107" r="3.62107" fill="white" fill-opacity="0.5"/>
<circle cx="502.787" cy="3.62107" r="3.62107" fill="white" fill-opacity="0.5"/>
<circle cx="520.651" cy="3.62107" r="3.62107" fill="white" fill-opacity="0.5"/>
<circle cx="538.515" cy="3.62107" r="3.62107" fill="white" fill-opacity="0.5"/>
<circle cx="556.379" cy="3.62107" r="3.62107" fill="white" fill-opacity="0.5"/>
<circle cx="431.331" cy="16.6571" r="3.62107" fill="white" fill-opacity="0.5"/>
<circle cx="449.195" cy="16.6571" r="3.62107" fill="white" fill-opacity="0.5"/>
<circle cx="467.059" cy="16.6571" r="3.62107" fill="white" fill-opacity="0.5"/>
<circle cx="484.923" cy="16.6571" r="3.62107" fill="white" fill-opacity="0.5"/>
<circle cx="502.787" cy="16.6571" r="3.62107" fill="white" fill-opacity="0.5"/>
<circle cx="520.651" cy="16.6571" r="3.62107" fill="white" fill-opacity="0.5"/>
<circle cx="538.515" cy="16.6571" r="3.62107" fill="white" fill-opacity="0.5"/>
<circle cx="556.379" cy="16.6571" r="3.62107" fill="white" fill-opacity="0.5"/>
<circle cx="431.331" cy="29.6925" r="3.62107" fill="white" fill-opacity="0.5"/>
<circle cx="449.195" cy="29.6925" r="3.62107" fill="white" fill-opacity="0.5"/>
<circle cx="467.059" cy="29.6925" r="3.62107" fill="white" fill-opacity="0.5"/>
<circle cx="484.923" cy="29.6925" r="3.62107" fill="white" fill-opacity="0.5"/>
<circle cx="502.787" cy="29.6925" r="3.62107" fill="white" fill-opacity="0.5"/>
<circle cx="520.651" cy="29.6925" r="3.62107" fill="white" fill-opacity="0.5"/>
<circle cx="538.515" cy="29.6925" r="3.62107" fill="white" fill-opacity="0.5"/>
<circle cx="556.379" cy="29.6925" r="3.62107" fill="white" fill-opacity="0.5"/>
<circle cx="573.621" cy="3.62107" r="3.62107" fill="white" fill-opacity="0.5"/>
<circle cx="591.485" cy="3.62107" r="3.62107" fill="white" fill-opacity="0.5"/>
<circle cx="609.349" cy="3.62107" r="3.62107" fill="white" fill-opacity="0.5"/>
<circle cx="627.213" cy="3.62107" r="3.62107" fill="white" fill-opacity="0.5"/>
<circle cx="645.077" cy="3.62107" r="3.62107" fill="white" fill-opacity="0.5"/>
<circle cx="662.941" cy="3.62107" r="3.62107" fill="white" fill-opacity="0.5"/>
<circle cx="680.805" cy="3.62107" r="3.62107" fill="white" fill-opacity="0.5"/>
<circle cx="698.668" cy="3.62107" r="3.62107" fill="white" fill-opacity="0.5"/>
<circle cx="573.621" cy="16.6571" r="3.62107" fill="white" fill-opacity="0.5"/>
<circle cx="591.485" cy="16.6571" r="3.62107" fill="white" fill-opacity="0.5"/>
<circle cx="609.349" cy="16.6571" r="3.62107" fill="white" fill-opacity="0.5"/>
<circle cx="627.213" cy="16.6571" r="3.62107" fill="white" fill-opacity="0.5"/>
<circle cx="645.077" cy="16.6571" r="3.62107" fill="white" fill-opacity="0.5"/>
<circle cx="662.941" cy="16.6571" r="3.62107" fill="white" fill-opacity="0.5"/>
<circle cx="680.805" cy="16.6571" r="3.62107" fill="white" fill-opacity="0.5"/>
<circle cx="698.668" cy="16.6571" r="3.62107" fill="white" fill-opacity="0.5"/>
<circle cx="573.621" cy="29.6925" r="3.62107" fill="white" fill-opacity="0.5"/>
<circle cx="591.485" cy="29.6925" r="3.62107" fill="white" fill-opacity="0.5"/>
<circle cx="609.349" cy="29.6925" r="3.62107" fill="white" fill-opacity="0.5"/>
<circle cx="627.213" cy="29.6925" r="3.62107" fill="white" fill-opacity="0.5"/>
<circle cx="645.077" cy="29.6925" r="3.62107" fill="white" fill-opacity="0.5"/>
<circle cx="662.941" cy="29.6925" r="3.62107" fill="white" fill-opacity="0.5"/>
<circle cx="680.805" cy="29.6925" r="3.62107" fill="white" fill-opacity="0.5"/>
<circle cx="698.668" cy="29.6925" r="3.62107" fill="white" fill-opacity="0.5"/>
<circle cx="715.65" cy="3.62107" r="3.62107" fill="white" fill-opacity="0.5"/>
<circle cx="733.514" cy="3.62107" r="3.62107" fill="white" fill-opacity="0.5"/>
<circle cx="751.378" cy="3.62107" r="3.62107" fill="white" fill-opacity="0.5"/>
<circle cx="769.242" cy="3.62107" r="3.62107" fill="white" fill-opacity="0.5"/>
<circle cx="715.65" cy="16.6571" r="3.62107" fill="white" fill-opacity="0.5"/>
<circle cx="733.514" cy="16.6571" r="3.62107" fill="white" fill-opacity="0.5"/>
<circle cx="751.378" cy="16.6571" r="3.62107" fill="white" fill-opacity="0.5"/>
<circle cx="769.242" cy="16.6571" r="3.62107" fill="white" fill-opacity="0.5"/>
<circle cx="715.65" cy="29.6925" r="3.62107" fill="white" fill-opacity="0.5"/>
<circle cx="733.514" cy="29.6925" r="3.62107" fill="white" fill-opacity="0.5"/>
<circle cx="751.378" cy="29.6925" r="3.62107" fill="white" fill-opacity="0.5"/>
<circle cx="769.242" cy="29.6925" r="3.62107" fill="white" fill-opacity="0.5"/>
</svg>
