<svg width="590" height="162" viewBox="0 0 590 162" fill="none" xmlns="http://www.w3.org/2000/svg">
<circle cx="3.81506" cy="3.81506" r="3.81506" fill="#DADADA" fill-opacity="0.3"/>
<circle cx="22.6361" cy="3.81506" r="3.81506" fill="#DADADA" fill-opacity="0.3"/>
<circle cx="41.457" cy="3.81506" r="3.81506" fill="#DADADA" fill-opacity="0.3"/>
<circle cx="60.278" cy="3.81506" r="3.81506" fill="#DADADA" fill-opacity="0.3"/>
<circle cx="79.0989" cy="3.81506" r="3.81506" fill="#DADADA" fill-opacity="0.3"/>
<circle cx="97.92" cy="3.81506" r="3.81506" fill="#DADADA" fill-opacity="0.3"/>
<circle cx="116.741" cy="3.81506" r="3.81506" fill="#DADADA" fill-opacity="0.3"/>
<circle cx="135.562" cy="3.81506" r="3.81506" fill="#DADADA" fill-opacity="0.3"/>
<circle cx="3.81506" cy="17.5494" r="3.81506" fill="#DADADA" fill-opacity="0.3"/>
<circle cx="22.6361" cy="17.5494" r="3.81506" fill="#DADADA" fill-opacity="0.3"/>
<circle cx="41.457" cy="17.5494" r="3.81506" fill="#DADADA" fill-opacity="0.3"/>
<circle cx="60.278" cy="17.5494" r="3.81506" fill="#DADADA" fill-opacity="0.3"/>
<circle cx="79.0989" cy="17.5494" r="3.81506" fill="#DADADA" fill-opacity="0.3"/>
<circle cx="97.92" cy="17.5494" r="3.81506" fill="#DADADA" fill-opacity="0.3"/>
<circle cx="116.741" cy="17.5494" r="3.81506" fill="#DADADA" fill-opacity="0.3"/>
<circle cx="135.562" cy="17.5494" r="3.81506" fill="#DADADA" fill-opacity="0.3"/>
<circle cx="3.81506" cy="31.2833" r="3.81506" fill="#DADADA" fill-opacity="0.3"/>
<circle cx="22.6361" cy="31.2833" r="3.81506" fill="#DADADA" fill-opacity="0.3"/>
<circle cx="41.457" cy="31.2833" r="3.81506" fill="#DADADA" fill-opacity="0.3"/>
<circle cx="60.278" cy="31.2833" r="3.81506" fill="#DADADA" fill-opacity="0.3"/>
<circle cx="79.0989" cy="31.2833" r="3.81506" fill="#DADADA" fill-opacity="0.3"/>
<circle cx="97.92" cy="31.2833" r="3.81506" fill="#DADADA" fill-opacity="0.3"/>
<circle cx="116.741" cy="31.2833" r="3.81506" fill="#DADADA" fill-opacity="0.3"/>
<circle cx="135.562" cy="31.2833" r="3.81506" fill="#DADADA" fill-opacity="0.3"/>
<circle cx="153.453" cy="3.81506" r="3.81506" fill="#DADADA" fill-opacity="0.3"/>
<circle cx="172.274" cy="3.81506" r="3.81506" fill="#DADADA" fill-opacity="0.3"/>
<circle cx="191.094" cy="3.81506" r="3.81506" fill="#DADADA" fill-opacity="0.3"/>
<circle cx="209.916" cy="3.81506" r="3.81506" fill="#DADADA" fill-opacity="0.3"/>
<circle cx="228.736" cy="3.81506" r="3.81506" fill="#DADADA" fill-opacity="0.3"/>
<circle cx="247.557" cy="3.81506" r="3.81506" fill="#DADADA" fill-opacity="0.3"/>
<circle cx="266.379" cy="3.81506" r="3.81506" fill="#DADADA" fill-opacity="0.3"/>
<circle cx="285.199" cy="3.81506" r="3.81506" fill="#DADADA" fill-opacity="0.3"/>
<circle cx="153.453" cy="17.5494" r="3.81506" fill="#DADADA" fill-opacity="0.3"/>
<circle cx="172.274" cy="17.5494" r="3.81506" fill="#DADADA" fill-opacity="0.3"/>
<circle cx="191.094" cy="17.5494" r="3.81506" fill="#DADADA" fill-opacity="0.3"/>
<circle cx="209.916" cy="17.5494" r="3.81506" fill="#DADADA" fill-opacity="0.3"/>
<circle cx="228.736" cy="17.5494" r="3.81506" fill="#DADADA" fill-opacity="0.3"/>
<circle cx="247.557" cy="17.5494" r="3.81506" fill="#DADADA" fill-opacity="0.3"/>
<circle cx="266.379" cy="17.5494" r="3.81506" fill="#DADADA" fill-opacity="0.3"/>
<circle cx="285.199" cy="17.5494" r="3.81506" fill="#DADADA" fill-opacity="0.3"/>
<circle cx="153.453" cy="31.2833" r="3.81506" fill="#DADADA" fill-opacity="0.3"/>
<circle cx="172.274" cy="31.2833" r="3.81506" fill="#DADADA" fill-opacity="0.3"/>
<circle cx="191.094" cy="31.2833" r="3.81506" fill="#DADADA" fill-opacity="0.3"/>
<circle cx="209.916" cy="31.2833" r="3.81506" fill="#DADADA" fill-opacity="0.3"/>
<circle cx="228.736" cy="31.2833" r="3.81506" fill="#DADADA" fill-opacity="0.3"/>
<circle cx="247.557" cy="31.2833" r="3.81506" fill="#DADADA" fill-opacity="0.3"/>
<circle cx="266.379" cy="31.2833" r="3.81506" fill="#DADADA" fill-opacity="0.3"/>
<circle cx="285.199" cy="31.2833" r="3.81506" fill="#DADADA" fill-opacity="0.3"/>
<circle cx="304.801" cy="3.81506" r="3.81506" fill="#DADADA" fill-opacity="0.3"/>
<circle cx="323.621" cy="3.81506" r="3.81506" fill="#DADADA" fill-opacity="0.3"/>
<circle cx="342.443" cy="3.81506" r="3.81506" fill="#DADADA" fill-opacity="0.3"/>
<circle cx="361.263" cy="3.81506" r="3.81506" fill="#DADADA" fill-opacity="0.3"/>
<circle cx="380.084" cy="3.81506" r="3.81506" fill="#DADADA" fill-opacity="0.3"/>
<circle cx="398.905" cy="3.81506" r="3.81506" fill="#DADADA" fill-opacity="0.3"/>
<circle cx="417.726" cy="3.81506" r="3.81506" fill="#DADADA" fill-opacity="0.3"/>
<circle cx="436.547" cy="3.81506" r="3.81506" fill="#DADADA" fill-opacity="0.3"/>
<circle cx="304.801" cy="17.5494" r="3.81506" fill="#DADADA" fill-opacity="0.3"/>
<circle cx="323.621" cy="17.5494" r="3.81506" fill="#DADADA" fill-opacity="0.3"/>
<circle cx="342.443" cy="17.5494" r="3.81506" fill="#DADADA" fill-opacity="0.3"/>
<circle cx="361.263" cy="17.5494" r="3.81506" fill="#DADADA" fill-opacity="0.3"/>
<circle cx="380.084" cy="17.5494" r="3.81506" fill="#DADADA" fill-opacity="0.3"/>
<circle cx="398.905" cy="17.5494" r="3.81506" fill="#DADADA" fill-opacity="0.3"/>
<circle cx="417.726" cy="17.5494" r="3.81506" fill="#DADADA" fill-opacity="0.3"/>
<circle cx="436.547" cy="17.5494" r="3.81506" fill="#DADADA" fill-opacity="0.3"/>
<circle cx="304.801" cy="31.2833" r="3.81506" fill="#DADADA" fill-opacity="0.3"/>
<circle cx="323.621" cy="31.2833" r="3.81506" fill="#DADADA" fill-opacity="0.3"/>
<circle cx="342.443" cy="31.2833" r="3.81506" fill="#DADADA" fill-opacity="0.3"/>
<circle cx="361.263" cy="31.2833" r="3.81506" fill="#DADADA" fill-opacity="0.3"/>
<circle cx="380.084" cy="31.2833" r="3.81506" fill="#DADADA" fill-opacity="0.3"/>
<circle cx="398.905" cy="31.2833" r="3.81506" fill="#DADADA" fill-opacity="0.3"/>
<circle cx="417.726" cy="31.2833" r="3.81506" fill="#DADADA" fill-opacity="0.3"/>
<circle cx="436.547" cy="31.2833" r="3.81506" fill="#DADADA" fill-opacity="0.3"/>
<circle cx="454.438" cy="3.81506" r="3.81506" fill="#DADADA" fill-opacity="0.3"/>
<circle cx="473.259" cy="3.81506" r="3.81506" fill="#DADADA" fill-opacity="0.3"/>
<circle cx="492.08" cy="3.81506" r="3.81506" fill="#DADADA" fill-opacity="0.3"/>
<circle cx="510.901" cy="3.81506" r="3.81506" fill="#DADADA" fill-opacity="0.3"/>
<circle cx="529.722" cy="3.81506" r="3.81506" fill="#DADADA" fill-opacity="0.3"/>
<circle cx="548.543" cy="3.81506" r="3.81506" fill="#DADADA" fill-opacity="0.3"/>
<circle cx="567.364" cy="3.81506" r="3.81506" fill="#DADADA" fill-opacity="0.3"/>
<circle cx="586.185" cy="3.81506" r="3.81506" fill="#DADADA" fill-opacity="0.3"/>
<circle cx="454.438" cy="17.5494" r="3.81506" fill="#DADADA" fill-opacity="0.3"/>
<circle cx="473.259" cy="17.5494" r="3.81506" fill="#DADADA" fill-opacity="0.3"/>
<circle cx="492.08" cy="17.5494" r="3.81506" fill="#DADADA" fill-opacity="0.3"/>
<circle cx="510.901" cy="17.5494" r="3.81506" fill="#DADADA" fill-opacity="0.3"/>
<circle cx="529.722" cy="17.5494" r="3.81506" fill="#DADADA" fill-opacity="0.3"/>
<circle cx="548.543" cy="17.5494" r="3.81506" fill="#DADADA" fill-opacity="0.3"/>
<circle cx="567.364" cy="17.5494" r="3.81506" fill="#DADADA" fill-opacity="0.3"/>
<circle cx="586.185" cy="17.5494" r="3.81506" fill="#DADADA" fill-opacity="0.3"/>
<circle cx="454.438" cy="31.2833" r="3.81506" fill="#DADADA" fill-opacity="0.3"/>
<circle cx="473.259" cy="31.2833" r="3.81506" fill="#DADADA" fill-opacity="0.3"/>
<circle cx="492.08" cy="31.2833" r="3.81506" fill="#DADADA" fill-opacity="0.3"/>
<circle cx="510.901" cy="31.2833" r="3.81506" fill="#DADADA" fill-opacity="0.3"/>
<circle cx="529.722" cy="31.2833" r="3.81506" fill="#DADADA" fill-opacity="0.3"/>
<circle cx="548.543" cy="31.2833" r="3.81506" fill="#DADADA" fill-opacity="0.3"/>
<circle cx="567.364" cy="31.2833" r="3.81506" fill="#DADADA" fill-opacity="0.3"/>
<circle cx="586.185" cy="31.2833" r="3.81506" fill="#DADADA" fill-opacity="0.3"/>
<circle cx="3.81506" cy="45.713" r="3.81506" fill="#DADADA" fill-opacity="0.3"/>
<circle cx="22.6361" cy="45.713" r="3.81506" fill="#DADADA" fill-opacity="0.3"/>
<circle cx="41.457" cy="45.713" r="3.81506" fill="#DADADA" fill-opacity="0.3"/>
<circle cx="60.278" cy="45.713" r="3.81506" fill="#DADADA" fill-opacity="0.3"/>
<circle cx="79.0989" cy="45.713" r="3.81506" fill="#DADADA" fill-opacity="0.3"/>
<circle cx="97.92" cy="45.713" r="3.81506" fill="#DADADA" fill-opacity="0.3"/>
<circle cx="116.741" cy="45.713" r="3.81506" fill="#DADADA" fill-opacity="0.3"/>
<circle cx="135.562" cy="45.713" r="3.81506" fill="#DADADA" fill-opacity="0.3"/>
<circle cx="3.81506" cy="59.4486" r="3.81506" fill="#DADADA" fill-opacity="0.3"/>
<circle cx="22.6361" cy="59.4486" r="3.81506" fill="#DADADA" fill-opacity="0.3"/>
<circle cx="41.457" cy="59.4486" r="3.81506" fill="#DADADA" fill-opacity="0.3"/>
<circle cx="60.278" cy="59.4486" r="3.81506" fill="#DADADA" fill-opacity="0.3"/>
<circle cx="79.0989" cy="59.4486" r="3.81506" fill="#DADADA" fill-opacity="0.3"/>
<circle cx="97.92" cy="59.4486" r="3.81506" fill="#DADADA" fill-opacity="0.3"/>
<circle cx="116.741" cy="59.4486" r="3.81506" fill="#DADADA" fill-opacity="0.3"/>
<circle cx="135.562" cy="59.4486" r="3.81506" fill="#DADADA" fill-opacity="0.3"/>
<circle cx="3.81506" cy="73.1813" r="3.81506" fill="#DADADA" fill-opacity="0.3"/>
<circle cx="22.6361" cy="73.1813" r="3.81506" fill="#DADADA" fill-opacity="0.3"/>
<circle cx="41.457" cy="73.1813" r="3.81506" fill="#DADADA" fill-opacity="0.3"/>
<circle cx="60.278" cy="73.1813" r="3.81506" fill="#DADADA" fill-opacity="0.3"/>
<circle cx="79.0989" cy="73.1813" r="3.81506" fill="#DADADA" fill-opacity="0.3"/>
<circle cx="97.92" cy="73.1813" r="3.81506" fill="#DADADA" fill-opacity="0.3"/>
<circle cx="116.741" cy="73.1813" r="3.81506" fill="#DADADA" fill-opacity="0.3"/>
<circle cx="135.562" cy="73.1813" r="3.81506" fill="#DADADA" fill-opacity="0.3"/>
<circle cx="153.453" cy="45.713" r="3.81506" fill="#DADADA" fill-opacity="0.3"/>
<circle cx="172.274" cy="45.713" r="3.81506" fill="#DADADA" fill-opacity="0.3"/>
<circle cx="191.094" cy="45.713" r="3.81506" fill="#DADADA" fill-opacity="0.3"/>
<circle cx="209.916" cy="45.713" r="3.81506" fill="#DADADA" fill-opacity="0.3"/>
<circle cx="228.736" cy="45.713" r="3.81506" fill="#DADADA" fill-opacity="0.3"/>
<circle cx="247.557" cy="45.713" r="3.81506" fill="#DADADA" fill-opacity="0.3"/>
<circle cx="266.379" cy="45.713" r="3.81506" fill="#DADADA" fill-opacity="0.3"/>
<circle cx="285.199" cy="45.713" r="3.81506" fill="#DADADA" fill-opacity="0.3"/>
<circle cx="153.453" cy="59.4486" r="3.81506" fill="#DADADA" fill-opacity="0.3"/>
<circle cx="172.274" cy="59.4486" r="3.81506" fill="#DADADA" fill-opacity="0.3"/>
<circle cx="191.094" cy="59.4486" r="3.81506" fill="#DADADA" fill-opacity="0.3"/>
<circle cx="209.916" cy="59.4486" r="3.81506" fill="#DADADA" fill-opacity="0.3"/>
<circle cx="228.736" cy="59.4486" r="3.81506" fill="#DADADA" fill-opacity="0.3"/>
<circle cx="247.557" cy="59.4486" r="3.81506" fill="#DADADA" fill-opacity="0.3"/>
<circle cx="266.379" cy="59.4486" r="3.81506" fill="#DADADA" fill-opacity="0.3"/>
<circle cx="285.199" cy="59.4486" r="3.81506" fill="#DADADA" fill-opacity="0.3"/>
<circle cx="153.453" cy="73.1813" r="3.81506" fill="#DADADA" fill-opacity="0.3"/>
<circle cx="172.274" cy="73.1813" r="3.81506" fill="#DADADA" fill-opacity="0.3"/>
<circle cx="191.094" cy="73.1813" r="3.81506" fill="#DADADA" fill-opacity="0.3"/>
<circle cx="209.916" cy="73.1813" r="3.81506" fill="#DADADA" fill-opacity="0.3"/>
<circle cx="228.736" cy="73.1813" r="3.81506" fill="#DADADA" fill-opacity="0.3"/>
<circle cx="247.557" cy="73.1813" r="3.81506" fill="#DADADA" fill-opacity="0.3"/>
<circle cx="266.379" cy="73.1813" r="3.81506" fill="#DADADA" fill-opacity="0.3"/>
<circle cx="285.199" cy="73.1813" r="3.81506" fill="#DADADA" fill-opacity="0.3"/>
<circle cx="304.801" cy="45.713" r="3.81506" fill="#DADADA" fill-opacity="0.3"/>
<circle cx="323.621" cy="45.713" r="3.81506" fill="#DADADA" fill-opacity="0.3"/>
<circle cx="342.443" cy="45.713" r="3.81506" fill="#DADADA" fill-opacity="0.3"/>
<circle cx="361.263" cy="45.713" r="3.81506" fill="#DADADA" fill-opacity="0.3"/>
<circle cx="380.084" cy="45.713" r="3.81506" fill="#DADADA" fill-opacity="0.3"/>
<circle cx="398.905" cy="45.713" r="3.81506" fill="#DADADA" fill-opacity="0.3"/>
<circle cx="417.726" cy="45.713" r="3.81506" fill="#DADADA" fill-opacity="0.3"/>
<circle cx="436.547" cy="45.713" r="3.81506" fill="#DADADA" fill-opacity="0.3"/>
<circle cx="304.801" cy="59.4486" r="3.81506" fill="#DADADA" fill-opacity="0.3"/>
<circle cx="323.621" cy="59.4486" r="3.81506" fill="#DADADA" fill-opacity="0.3"/>
<circle cx="342.443" cy="59.4486" r="3.81506" fill="#DADADA" fill-opacity="0.3"/>
<circle cx="361.263" cy="59.4486" r="3.81506" fill="#DADADA" fill-opacity="0.3"/>
<circle cx="380.084" cy="59.4486" r="3.81506" fill="#DADADA" fill-opacity="0.3"/>
<circle cx="398.905" cy="59.4486" r="3.81506" fill="#DADADA" fill-opacity="0.3"/>
<circle cx="417.726" cy="59.4486" r="3.81506" fill="#DADADA" fill-opacity="0.3"/>
<circle cx="436.547" cy="59.4486" r="3.81506" fill="#DADADA" fill-opacity="0.3"/>
<circle cx="304.801" cy="73.1813" r="3.81506" fill="#DADADA" fill-opacity="0.3"/>
<circle cx="323.621" cy="73.1813" r="3.81506" fill="#DADADA" fill-opacity="0.3"/>
<circle cx="342.443" cy="73.1813" r="3.81506" fill="#DADADA" fill-opacity="0.3"/>
<circle cx="361.263" cy="73.1813" r="3.81506" fill="#DADADA" fill-opacity="0.3"/>
<circle cx="380.084" cy="73.1813" r="3.81506" fill="#DADADA" fill-opacity="0.3"/>
<circle cx="398.905" cy="73.1813" r="3.81506" fill="#DADADA" fill-opacity="0.3"/>
<circle cx="417.726" cy="73.1813" r="3.81506" fill="#DADADA" fill-opacity="0.3"/>
<circle cx="436.547" cy="73.1813" r="3.81506" fill="#DADADA" fill-opacity="0.3"/>
<circle cx="454.438" cy="45.713" r="3.81506" fill="#DADADA" fill-opacity="0.3"/>
<circle cx="473.259" cy="45.713" r="3.81506" fill="#DADADA" fill-opacity="0.3"/>
<circle cx="492.08" cy="45.713" r="3.81506" fill="#DADADA" fill-opacity="0.3"/>
<circle cx="510.901" cy="45.713" r="3.81506" fill="#DADADA" fill-opacity="0.3"/>
<circle cx="529.722" cy="45.713" r="3.81506" fill="#DADADA" fill-opacity="0.3"/>
<circle cx="548.543" cy="45.713" r="3.81506" fill="#DADADA" fill-opacity="0.3"/>
<circle cx="567.364" cy="45.713" r="3.81506" fill="#DADADA" fill-opacity="0.3"/>
<circle cx="586.185" cy="45.713" r="3.81506" fill="#DADADA" fill-opacity="0.3"/>
<circle cx="454.438" cy="59.4486" r="3.81506" fill="#DADADA" fill-opacity="0.3"/>
<circle cx="473.259" cy="59.4486" r="3.81506" fill="#DADADA" fill-opacity="0.3"/>
<circle cx="492.08" cy="59.4486" r="3.81506" fill="#DADADA" fill-opacity="0.3"/>
<circle cx="510.901" cy="59.4486" r="3.81506" fill="#DADADA" fill-opacity="0.3"/>
<circle cx="529.722" cy="59.4486" r="3.81506" fill="#DADADA" fill-opacity="0.3"/>
<circle cx="548.543" cy="59.4486" r="3.81506" fill="#DADADA" fill-opacity="0.3"/>
<circle cx="567.364" cy="59.4486" r="3.81506" fill="#DADADA" fill-opacity="0.3"/>
<circle cx="586.185" cy="59.4486" r="3.81506" fill="#DADADA" fill-opacity="0.3"/>
<circle cx="454.438" cy="73.1813" r="3.81506" fill="#DADADA" fill-opacity="0.3"/>
<circle cx="473.259" cy="73.1813" r="3.81506" fill="#DADADA" fill-opacity="0.3"/>
<circle cx="492.08" cy="73.1813" r="3.81506" fill="#DADADA" fill-opacity="0.3"/>
<circle cx="510.901" cy="73.1813" r="3.81506" fill="#DADADA" fill-opacity="0.3"/>
<circle cx="529.722" cy="73.1813" r="3.81506" fill="#DADADA" fill-opacity="0.3"/>
<circle cx="548.543" cy="73.1813" r="3.81506" fill="#DADADA" fill-opacity="0.3"/>
<circle cx="567.364" cy="73.1813" r="3.81506" fill="#DADADA" fill-opacity="0.3"/>
<circle cx="586.185" cy="73.1813" r="3.81506" fill="#DADADA" fill-opacity="0.3"/>
<circle cx="3.81506" cy="88.4669" r="3.81506" fill="#DADADA" fill-opacity="0.3"/>
<circle cx="22.6361" cy="88.4669" r="3.81506" fill="#DADADA" fill-opacity="0.3"/>
<circle cx="41.457" cy="88.4669" r="3.81506" fill="#DADADA" fill-opacity="0.3"/>
<circle cx="60.278" cy="88.4669" r="3.81506" fill="#DADADA" fill-opacity="0.3"/>
<circle cx="79.0989" cy="88.4669" r="3.81506" fill="#DADADA" fill-opacity="0.3"/>
<circle cx="97.92" cy="88.4669" r="3.81506" fill="#DADADA" fill-opacity="0.3"/>
<circle cx="116.741" cy="88.4669" r="3.81506" fill="#DADADA" fill-opacity="0.3"/>
<circle cx="135.562" cy="88.4669" r="3.81506" fill="#DADADA" fill-opacity="0.3"/>
<circle cx="3.81506" cy="102.203" r="3.81506" fill="#DADADA" fill-opacity="0.3"/>
<circle cx="22.6361" cy="102.203" r="3.81506" fill="#DADADA" fill-opacity="0.3"/>
<circle cx="41.457" cy="102.203" r="3.81506" fill="#DADADA" fill-opacity="0.3"/>
<circle cx="60.278" cy="102.203" r="3.81506" fill="#DADADA" fill-opacity="0.3"/>
<circle cx="79.0989" cy="102.203" r="3.81506" fill="#DADADA" fill-opacity="0.3"/>
<circle cx="97.92" cy="102.203" r="3.81506" fill="#DADADA" fill-opacity="0.3"/>
<circle cx="116.741" cy="102.203" r="3.81506" fill="#DADADA" fill-opacity="0.3"/>
<circle cx="135.562" cy="102.203" r="3.81506" fill="#DADADA" fill-opacity="0.3"/>
<circle cx="3.81506" cy="115.935" r="3.81506" fill="#DADADA" fill-opacity="0.3"/>
<circle cx="22.6361" cy="115.935" r="3.81506" fill="#DADADA" fill-opacity="0.3"/>
<circle cx="41.457" cy="115.935" r="3.81506" fill="#DADADA" fill-opacity="0.3"/>
<circle cx="60.278" cy="115.935" r="3.81506" fill="#DADADA" fill-opacity="0.3"/>
<circle cx="79.0989" cy="115.935" r="3.81506" fill="#DADADA" fill-opacity="0.3"/>
<circle cx="97.92" cy="115.935" r="3.81506" fill="#DADADA" fill-opacity="0.3"/>
<circle cx="116.741" cy="115.935" r="3.81506" fill="#DADADA" fill-opacity="0.3"/>
<circle cx="135.562" cy="115.935" r="3.81506" fill="#DADADA" fill-opacity="0.3"/>
<circle cx="153.453" cy="88.4669" r="3.81506" fill="#DADADA" fill-opacity="0.3"/>
<circle cx="172.274" cy="88.4669" r="3.81506" fill="#DADADA" fill-opacity="0.3"/>
<circle cx="191.094" cy="88.4669" r="3.81506" fill="#DADADA" fill-opacity="0.3"/>
<circle cx="209.916" cy="88.4669" r="3.81506" fill="#DADADA" fill-opacity="0.3"/>
<circle cx="228.736" cy="88.4669" r="3.81506" fill="#DADADA" fill-opacity="0.3"/>
<circle cx="247.557" cy="88.4669" r="3.81506" fill="#DADADA" fill-opacity="0.3"/>
<circle cx="266.379" cy="88.4669" r="3.81506" fill="#DADADA" fill-opacity="0.3"/>
<circle cx="285.199" cy="88.4669" r="3.81506" fill="#DADADA" fill-opacity="0.3"/>
<circle cx="153.453" cy="102.203" r="3.81506" fill="#DADADA" fill-opacity="0.3"/>
<circle cx="172.274" cy="102.203" r="3.81506" fill="#DADADA" fill-opacity="0.3"/>
<circle cx="191.094" cy="102.203" r="3.81506" fill="#DADADA" fill-opacity="0.3"/>
<circle cx="209.916" cy="102.203" r="3.81506" fill="#DADADA" fill-opacity="0.3"/>
<circle cx="228.736" cy="102.203" r="3.81506" fill="#DADADA" fill-opacity="0.3"/>
<circle cx="247.557" cy="102.203" r="3.81506" fill="#DADADA" fill-opacity="0.3"/>
<circle cx="266.379" cy="102.203" r="3.81506" fill="#DADADA" fill-opacity="0.3"/>
<circle cx="285.199" cy="102.203" r="3.81506" fill="#DADADA" fill-opacity="0.3"/>
<circle cx="153.453" cy="115.935" r="3.81506" fill="#DADADA" fill-opacity="0.3"/>
<circle cx="172.274" cy="115.935" r="3.81506" fill="#DADADA" fill-opacity="0.3"/>
<circle cx="191.094" cy="115.935" r="3.81506" fill="#DADADA" fill-opacity="0.3"/>
<circle cx="209.916" cy="115.935" r="3.81506" fill="#DADADA" fill-opacity="0.3"/>
<circle cx="228.736" cy="115.935" r="3.81506" fill="#DADADA" fill-opacity="0.3"/>
<circle cx="247.557" cy="115.935" r="3.81506" fill="#DADADA" fill-opacity="0.3"/>
<circle cx="266.379" cy="115.935" r="3.81506" fill="#DADADA" fill-opacity="0.3"/>
<circle cx="285.199" cy="115.935" r="3.81506" fill="#DADADA" fill-opacity="0.3"/>
<circle cx="304.801" cy="88.4669" r="3.81506" fill="#DADADA" fill-opacity="0.3"/>
<circle cx="323.621" cy="88.4669" r="3.81506" fill="#DADADA" fill-opacity="0.3"/>
<circle cx="342.443" cy="88.4669" r="3.81506" fill="#DADADA" fill-opacity="0.3"/>
<circle cx="361.263" cy="88.4669" r="3.81506" fill="#DADADA" fill-opacity="0.3"/>
<circle cx="380.084" cy="88.4669" r="3.81506" fill="#DADADA" fill-opacity="0.3"/>
<circle cx="398.905" cy="88.4669" r="3.81506" fill="#DADADA" fill-opacity="0.3"/>
<circle cx="417.726" cy="88.4669" r="3.81506" fill="#DADADA" fill-opacity="0.3"/>
<circle cx="436.547" cy="88.4669" r="3.81506" fill="#DADADA" fill-opacity="0.3"/>
<circle cx="304.801" cy="102.203" r="3.81506" fill="#DADADA" fill-opacity="0.3"/>
<circle cx="323.621" cy="102.203" r="3.81506" fill="#DADADA" fill-opacity="0.3"/>
<circle cx="342.443" cy="102.203" r="3.81506" fill="#DADADA" fill-opacity="0.3"/>
<circle cx="361.263" cy="102.203" r="3.81506" fill="#DADADA" fill-opacity="0.3"/>
<circle cx="380.084" cy="102.203" r="3.81506" fill="#DADADA" fill-opacity="0.3"/>
<circle cx="398.905" cy="102.203" r="3.81506" fill="#DADADA" fill-opacity="0.3"/>
<circle cx="417.726" cy="102.203" r="3.81506" fill="#DADADA" fill-opacity="0.3"/>
<circle cx="436.547" cy="102.203" r="3.81506" fill="#DADADA" fill-opacity="0.3"/>
<circle cx="304.801" cy="115.935" r="3.81506" fill="#DADADA" fill-opacity="0.3"/>
<circle cx="323.621" cy="115.935" r="3.81506" fill="#DADADA" fill-opacity="0.3"/>
<circle cx="342.443" cy="115.935" r="3.81506" fill="#DADADA" fill-opacity="0.3"/>
<circle cx="361.263" cy="115.935" r="3.81506" fill="#DADADA" fill-opacity="0.3"/>
<circle cx="380.084" cy="115.935" r="3.81506" fill="#DADADA" fill-opacity="0.3"/>
<circle cx="398.905" cy="115.935" r="3.81506" fill="#DADADA" fill-opacity="0.3"/>
<circle cx="417.726" cy="115.935" r="3.81506" fill="#DADADA" fill-opacity="0.3"/>
<circle cx="436.547" cy="115.935" r="3.81506" fill="#DADADA" fill-opacity="0.3"/>
<circle cx="454.438" cy="88.4669" r="3.81506" fill="#DADADA" fill-opacity="0.3"/>
<circle cx="473.259" cy="88.4669" r="3.81506" fill="#DADADA" fill-opacity="0.3"/>
<circle cx="492.08" cy="88.4669" r="3.81506" fill="#DADADA" fill-opacity="0.3"/>
<circle cx="510.901" cy="88.4669" r="3.81506" fill="#DADADA" fill-opacity="0.3"/>
<circle cx="529.722" cy="88.4669" r="3.81506" fill="#DADADA" fill-opacity="0.3"/>
<circle cx="548.543" cy="88.4669" r="3.81506" fill="#DADADA" fill-opacity="0.3"/>
<circle cx="567.364" cy="88.4669" r="3.81506" fill="#DADADA" fill-opacity="0.3"/>
<circle cx="586.185" cy="88.4669" r="3.81506" fill="#DADADA" fill-opacity="0.3"/>
<circle cx="454.438" cy="102.203" r="3.81506" fill="#DADADA" fill-opacity="0.3"/>
<circle cx="473.259" cy="102.203" r="3.81506" fill="#DADADA" fill-opacity="0.3"/>
<circle cx="492.08" cy="102.203" r="3.81506" fill="#DADADA" fill-opacity="0.3"/>
<circle cx="510.901" cy="102.203" r="3.81506" fill="#DADADA" fill-opacity="0.3"/>
<circle cx="529.722" cy="102.203" r="3.81506" fill="#DADADA" fill-opacity="0.3"/>
<circle cx="548.543" cy="102.203" r="3.81506" fill="#DADADA" fill-opacity="0.3"/>
<circle cx="567.364" cy="102.203" r="3.81506" fill="#DADADA" fill-opacity="0.3"/>
<circle cx="586.185" cy="102.203" r="3.81506" fill="#DADADA" fill-opacity="0.3"/>
<circle cx="454.438" cy="115.935" r="3.81506" fill="#DADADA" fill-opacity="0.3"/>
<circle cx="473.259" cy="115.935" r="3.81506" fill="#DADADA" fill-opacity="0.3"/>
<circle cx="492.08" cy="115.935" r="3.81506" fill="#DADADA" fill-opacity="0.3"/>
<circle cx="510.901" cy="115.935" r="3.81506" fill="#DADADA" fill-opacity="0.3"/>
<circle cx="529.722" cy="115.935" r="3.81506" fill="#DADADA" fill-opacity="0.3"/>
<circle cx="548.543" cy="115.935" r="3.81506" fill="#DADADA" fill-opacity="0.3"/>
<circle cx="567.364" cy="115.935" r="3.81506" fill="#DADADA" fill-opacity="0.3"/>
<circle cx="586.185" cy="115.935" r="3.81506" fill="#DADADA" fill-opacity="0.3"/>
<circle cx="3.81506" cy="130.365" r="3.81506" fill="#DADADA" fill-opacity="0.3"/>
<circle cx="22.6361" cy="130.365" r="3.81506" fill="#DADADA" fill-opacity="0.3"/>
<circle cx="41.457" cy="130.365" r="3.81506" fill="#DADADA" fill-opacity="0.3"/>
<circle cx="60.278" cy="130.365" r="3.81506" fill="#DADADA" fill-opacity="0.3"/>
<circle cx="79.0989" cy="130.365" r="3.81506" fill="#DADADA" fill-opacity="0.3"/>
<circle cx="97.92" cy="130.365" r="3.81506" fill="#DADADA" fill-opacity="0.3"/>
<circle cx="116.741" cy="130.365" r="3.81506" fill="#DADADA" fill-opacity="0.3"/>
<circle cx="135.562" cy="130.365" r="3.81506" fill="#DADADA" fill-opacity="0.3"/>
<circle cx="3.81506" cy="144.1" r="3.81506" fill="#DADADA" fill-opacity="0.3"/>
<circle cx="22.6361" cy="144.1" r="3.81506" fill="#DADADA" fill-opacity="0.3"/>
<circle cx="41.457" cy="144.1" r="3.81506" fill="#DADADA" fill-opacity="0.3"/>
<circle cx="60.278" cy="144.1" r="3.81506" fill="#DADADA" fill-opacity="0.3"/>
<circle cx="79.0989" cy="144.1" r="3.81506" fill="#DADADA" fill-opacity="0.3"/>
<circle cx="97.92" cy="144.1" r="3.81506" fill="#DADADA" fill-opacity="0.3"/>
<circle cx="116.741" cy="144.1" r="3.81506" fill="#DADADA" fill-opacity="0.3"/>
<circle cx="135.562" cy="144.1" r="3.81506" fill="#DADADA" fill-opacity="0.3"/>
<circle cx="3.81506" cy="157.833" r="3.81506" fill="#DADADA" fill-opacity="0.3"/>
<circle cx="22.6361" cy="157.833" r="3.81506" fill="#DADADA" fill-opacity="0.3"/>
<circle cx="41.457" cy="157.833" r="3.81506" fill="#DADADA" fill-opacity="0.3"/>
<circle cx="60.278" cy="157.833" r="3.81506" fill="#DADADA" fill-opacity="0.3"/>
<circle cx="79.0989" cy="157.833" r="3.81506" fill="#DADADA" fill-opacity="0.3"/>
<circle cx="97.92" cy="157.833" r="3.81506" fill="#DADADA" fill-opacity="0.3"/>
<circle cx="116.741" cy="157.833" r="3.81506" fill="#DADADA" fill-opacity="0.3"/>
<circle cx="135.562" cy="157.833" r="3.81506" fill="#DADADA" fill-opacity="0.3"/>
<circle cx="153.453" cy="130.365" r="3.81506" fill="#DADADA" fill-opacity="0.3"/>
<circle cx="172.274" cy="130.365" r="3.81506" fill="#DADADA" fill-opacity="0.3"/>
<circle cx="191.094" cy="130.365" r="3.81506" fill="#DADADA" fill-opacity="0.3"/>
<circle cx="209.916" cy="130.365" r="3.81506" fill="#DADADA" fill-opacity="0.3"/>
<circle cx="228.736" cy="130.365" r="3.81506" fill="#DADADA" fill-opacity="0.3"/>
<circle cx="247.557" cy="130.365" r="3.81506" fill="#DADADA" fill-opacity="0.3"/>
<circle cx="266.379" cy="130.365" r="3.81506" fill="#DADADA" fill-opacity="0.3"/>
<circle cx="285.199" cy="130.365" r="3.81506" fill="#DADADA" fill-opacity="0.3"/>
<circle cx="153.453" cy="144.1" r="3.81506" fill="#DADADA" fill-opacity="0.3"/>
<circle cx="172.274" cy="144.1" r="3.81506" fill="#DADADA" fill-opacity="0.3"/>
<circle cx="191.094" cy="144.1" r="3.81506" fill="#DADADA" fill-opacity="0.3"/>
<circle cx="209.916" cy="144.1" r="3.81506" fill="#DADADA" fill-opacity="0.3"/>
<circle cx="228.736" cy="144.1" r="3.81506" fill="#DADADA" fill-opacity="0.3"/>
<circle cx="247.557" cy="144.1" r="3.81506" fill="#DADADA" fill-opacity="0.3"/>
<circle cx="266.379" cy="144.1" r="3.81506" fill="#DADADA" fill-opacity="0.3"/>
<circle cx="285.199" cy="144.1" r="3.81506" fill="#DADADA" fill-opacity="0.3"/>
<circle cx="153.453" cy="157.833" r="3.81506" fill="#DADADA" fill-opacity="0.3"/>
<circle cx="172.274" cy="157.833" r="3.81506" fill="#DADADA" fill-opacity="0.3"/>
<circle cx="191.094" cy="157.833" r="3.81506" fill="#DADADA" fill-opacity="0.3"/>
<circle cx="209.916" cy="157.833" r="3.81506" fill="#DADADA" fill-opacity="0.3"/>
<circle cx="228.736" cy="157.833" r="3.81506" fill="#DADADA" fill-opacity="0.3"/>
<circle cx="247.557" cy="157.833" r="3.81506" fill="#DADADA" fill-opacity="0.3"/>
<circle cx="266.379" cy="157.833" r="3.81506" fill="#DADADA" fill-opacity="0.3"/>
<circle cx="285.199" cy="157.833" r="3.81506" fill="#DADADA" fill-opacity="0.3"/>
<circle cx="304.801" cy="130.365" r="3.81506" fill="#DADADA" fill-opacity="0.3"/>
<circle cx="323.621" cy="130.365" r="3.81506" fill="#DADADA" fill-opacity="0.3"/>
<circle cx="342.443" cy="130.365" r="3.81506" fill="#DADADA" fill-opacity="0.3"/>
<circle cx="361.263" cy="130.365" r="3.81506" fill="#DADADA" fill-opacity="0.3"/>
<circle cx="380.084" cy="130.365" r="3.81506" fill="#DADADA" fill-opacity="0.3"/>
<circle cx="398.905" cy="130.365" r="3.81506" fill="#DADADA" fill-opacity="0.3"/>
<circle cx="417.726" cy="130.365" r="3.81506" fill="#DADADA" fill-opacity="0.3"/>
<circle cx="436.547" cy="130.365" r="3.81506" fill="#DADADA" fill-opacity="0.3"/>
<circle cx="304.801" cy="144.1" r="3.81506" fill="#DADADA" fill-opacity="0.3"/>
<circle cx="323.621" cy="144.1" r="3.81506" fill="#DADADA" fill-opacity="0.3"/>
<circle cx="342.443" cy="144.1" r="3.81506" fill="#DADADA" fill-opacity="0.3"/>
<circle cx="361.263" cy="144.1" r="3.81506" fill="#DADADA" fill-opacity="0.3"/>
<circle cx="380.084" cy="144.1" r="3.81506" fill="#DADADA" fill-opacity="0.3"/>
<circle cx="398.905" cy="144.1" r="3.81506" fill="#DADADA" fill-opacity="0.3"/>
<circle cx="417.726" cy="144.1" r="3.81506" fill="#DADADA" fill-opacity="0.3"/>
<circle cx="436.547" cy="144.1" r="3.81506" fill="#DADADA" fill-opacity="0.3"/>
<circle cx="304.801" cy="157.833" r="3.81506" fill="#DADADA" fill-opacity="0.3"/>
<circle cx="323.621" cy="157.833" r="3.81506" fill="#DADADA" fill-opacity="0.3"/>
<circle cx="342.443" cy="157.833" r="3.81506" fill="#DADADA" fill-opacity="0.3"/>
<circle cx="361.263" cy="157.833" r="3.81506" fill="#DADADA" fill-opacity="0.3"/>
<circle cx="380.084" cy="157.833" r="3.81506" fill="#DADADA" fill-opacity="0.3"/>
<circle cx="398.905" cy="157.833" r="3.81506" fill="#DADADA" fill-opacity="0.3"/>
<circle cx="417.726" cy="157.833" r="3.81506" fill="#DADADA" fill-opacity="0.3"/>
<circle cx="436.547" cy="157.833" r="3.81506" fill="#DADADA" fill-opacity="0.3"/>
<circle cx="454.438" cy="130.365" r="3.81506" fill="#DADADA" fill-opacity="0.3"/>
<circle cx="473.259" cy="130.365" r="3.81506" fill="#DADADA" fill-opacity="0.3"/>
<circle cx="492.08" cy="130.365" r="3.81506" fill="#DADADA" fill-opacity="0.3"/>
<circle cx="510.901" cy="130.365" r="3.81506" fill="#DADADA" fill-opacity="0.3"/>
<circle cx="529.722" cy="130.365" r="3.81506" fill="#DADADA" fill-opacity="0.3"/>
<circle cx="548.543" cy="130.365" r="3.81506" fill="#DADADA" fill-opacity="0.3"/>
<circle cx="567.364" cy="130.365" r="3.81506" fill="#DADADA" fill-opacity="0.3"/>
<circle cx="586.185" cy="130.365" r="3.81506" fill="#DADADA" fill-opacity="0.3"/>
<circle cx="454.438" cy="144.1" r="3.81506" fill="#DADADA" fill-opacity="0.3"/>
<circle cx="473.259" cy="144.1" r="3.81506" fill="#DADADA" fill-opacity="0.3"/>
<circle cx="492.08" cy="144.1" r="3.81506" fill="#DADADA" fill-opacity="0.3"/>
<circle cx="510.901" cy="144.1" r="3.81506" fill="#DADADA" fill-opacity="0.3"/>
<circle cx="529.722" cy="144.1" r="3.81506" fill="#DADADA" fill-opacity="0.3"/>
<circle cx="548.543" cy="144.1" r="3.81506" fill="#DADADA" fill-opacity="0.3"/>
<circle cx="567.364" cy="144.1" r="3.81506" fill="#DADADA" fill-opacity="0.3"/>
<circle cx="586.185" cy="144.1" r="3.81506" fill="#DADADA" fill-opacity="0.3"/>
<circle cx="454.438" cy="157.833" r="3.81506" fill="#DADADA" fill-opacity="0.3"/>
<circle cx="473.259" cy="157.833" r="3.81506" fill="#DADADA" fill-opacity="0.3"/>
<circle cx="492.08" cy="157.833" r="3.81506" fill="#DADADA" fill-opacity="0.3"/>
<circle cx="510.901" cy="157.833" r="3.81506" fill="#DADADA" fill-opacity="0.3"/>
<circle cx="529.722" cy="157.833" r="3.81506" fill="#DADADA" fill-opacity="0.3"/>
<circle cx="548.543" cy="157.833" r="3.81506" fill="#DADADA" fill-opacity="0.3"/>
<circle cx="567.364" cy="157.833" r="3.81506" fill="#DADADA" fill-opacity="0.3"/>
<circle cx="586.185" cy="157.833" r="3.81506" fill="#DADADA" fill-opacity="0.3"/>
</svg>
