<svg width="122" height="116" viewBox="0 0 122 116" fill="none" xmlns="http://www.w3.org/2000/svg">
<path d="M0 95.2297V114.58C0 115.357 0.640749 116 1.41383 116H119.175C119.966 116 120.588 115.357 120.588 114.58V95.2297C120.588 85.771 113.466 77.958 104.328 76.8998C104.744 75.9931 105.176 75.161 105.573 74.3638C106.928 71.639 108.229 69.0494 108.379 65.7932C108.783 57.0315 101.347 49.8758 92.9852 50.3C90.1018 50.4142 87.3879 51.3769 84.9387 53.139C75.028 45.9809 61.4817 53.1064 61.4817 65.094C61.4817 69.0984 63.6013 72.5178 65.5143 76.7856H55.0951C56.7759 73.1658 58.8932 70.0214 59.0905 65.7956C59.5293 57.1271 52.1839 49.9131 43.7149 50.3023C40.8129 50.4165 38.1199 51.3792 35.6684 53.1413C25.7785 45.9972 12.2114 53.0877 12.2114 65.0963C12.2114 69.5459 14.9972 73.7485 16.2811 76.8998C7.14342 77.958 0.00232155 85.7524 0 95.2297ZM64.3071 65.094C64.3071 55.0456 75.9613 49.4446 83.8267 55.8428C84.298 56.316 85.013 56.4302 85.4471 56.2204C85.6166 56.1644 85.7675 56.0875 85.9184 55.9756C88.0844 54.1972 90.5151 53.2322 93.1152 53.1367C100.124 52.8942 105.905 58.7867 105.552 65.6394V65.658C105.419 68.3059 104.365 70.4247 103.007 73.1494C100.565 77.8834 98.7682 82.4542 97.4496 89.2091C96.5952 93.6797 92.4002 98.6397 90.0833 96.9638C88.6532 95.9546 89.5284 94.8614 89.273 85.0648C89.273 82.643 87.3137 80.6758 84.9201 80.6758C82.5266 80.6758 80.5672 82.643 80.5672 85.0648V95.4138C80.5672 96.6026 79.5109 97.6375 77.9485 97.1736C75.5944 96.4744 73.1057 92.8988 72.4093 89.2091C69.8463 75.8812 64.3071 70.5692 64.3071 65.094ZM15.0367 65.094C15.0367 55.0736 26.6561 49.4306 34.5378 55.8428C35.009 56.316 35.745 56.4488 36.1582 56.2204C36.3277 56.1644 36.4972 56.0875 36.6295 55.9756C38.8141 54.1972 41.2262 53.2322 43.8263 53.1367C50.8769 52.8919 56.6157 58.8006 56.2629 65.6394V65.658C56.0145 71.4712 50.8908 74.9908 48.1792 89.2091C47.3574 93.5142 43.232 98.6607 40.7943 96.9638C40.3045 96.6049 40.0027 96.0362 40.0027 95.4115V85.0648C40.0027 82.643 38.0433 80.6758 35.6498 80.6758C33.2377 80.6758 31.2783 82.643 31.2783 85.0648C31.1065 95.3905 31.6637 95.7658 30.7699 96.7168C28.7014 98.9497 24.1674 94.605 23.1204 89.2067C20.6293 76.2611 15.0367 70.2149 15.0367 65.094ZM17.4488 79.6409C18.5423 82.4216 19.5591 85.6382 20.3507 89.7428C21.6903 96.838 28.4112 103.187 32.8245 98.691C33.6347 97.8216 34.106 96.6282 34.106 95.4185V85.0718C34.106 84.221 34.8024 83.5194 35.6521 83.5194C36.4809 83.5194 37.1774 84.2187 37.1774 85.0718V95.4185C37.1774 96.9708 37.911 98.4067 39.1739 99.297C43.8124 102.623 49.8322 95.7145 50.9511 89.7452C51.7799 85.4331 52.8177 82.2165 53.8345 79.6246H66.7029C67.8149 82.4053 68.8318 85.6405 69.6234 89.7452C71.0674 97.2319 77.8881 103.043 82.0971 98.6934C84.2492 96.4347 83.0582 94.2367 83.3972 85.0741C83.3972 84.2234 84.0751 83.5218 84.9224 83.5218C85.7698 83.5218 86.4477 84.221 86.4477 85.0741V95.4208C86.4477 98.7446 89.7884 100.982 92.6277 99.8844C96.8111 98.3717 99.5041 93.5655 100.24 89.7452C101.069 85.4331 102.086 82.2351 103.123 79.6432C111.281 80.135 117.763 86.9272 117.763 95.232V113.166H2.82765V95.232C2.82997 86.9435 9.30943 80.1327 17.4488 79.6409Z" fill="#5C81FB"/>
<path d="M120.586 8.83397H91.042L80.9804 1.39852C79.757 0.491812 78.306 0 76.7807 0H11.5891C7.68894 0 4.52466 3.19794 4.52466 7.09281C4.52466 10.8944 7.50089 13.9782 11.2316 14.167V38.5501C11.2316 41.3681 13.5114 43.657 16.3182 43.657C19.1249 43.657 21.3861 41.3681 21.3861 38.5501V14.188H24.627V38.5548C24.627 41.3728 26.9068 43.6617 29.7135 43.6617C32.5203 43.6617 34.8 41.3728 34.8 38.5548V14.188H38.0224V38.5548C38.0224 41.3728 40.3021 43.6617 43.1089 43.6617C45.9156 43.6617 48.1954 41.3728 48.1954 38.5548V14.188H51.4363V38.5548C51.4363 41.3728 53.7161 43.6617 56.5043 43.6617C59.311 43.6617 61.5908 41.3728 61.5908 38.5548V14.188H64.8317V38.5548C64.8317 41.3728 67.1114 43.6617 69.9182 43.6617C72.725 43.6617 74.9862 41.3728 74.9862 38.5548V14.188H75.7035L85.7651 21.6421C86.9909 22.5488 88.4396 23.0243 89.9486 23.0243H120.584C121.357 23.0243 121.998 22.3996 121.998 21.6048V10.2535C122 9.47728 121.359 8.83397 120.586 8.83397ZM18.5585 38.5525C18.5585 39.8018 17.5602 40.8227 16.3158 40.8227C15.0715 40.8227 14.0546 39.8018 14.0546 38.5525V14.188H18.5585V38.5525ZM31.9747 38.5525C31.9747 39.8018 30.9579 40.8227 29.7135 40.8227C28.4692 40.8227 27.4523 39.8018 27.4523 38.5525V14.188H31.9747V38.5525ZM45.3724 38.5525C45.3724 39.8018 44.3556 40.8227 43.1112 40.8227C41.8669 40.8227 40.85 39.8018 40.85 38.5525V14.188H45.3724V38.5525ZM58.7678 38.5525C58.7678 39.8018 57.7695 40.8227 56.5066 40.8227C55.2808 40.8227 54.264 39.8018 54.264 38.5525V14.188H58.7678V38.5525ZM72.1631 38.5525C72.1631 39.8018 71.1649 40.8227 69.9205 40.8227C68.6762 40.8227 67.6593 39.8018 67.6593 38.5525V14.188H72.1631V38.5525ZM119.172 20.1853H89.9486C89.0455 20.1853 88.1772 19.9009 87.4436 19.3531L77.0059 11.6333C76.7598 11.4632 76.458 11.349 76.1562 11.349H11.5868C9.25134 11.349 7.34767 9.43766 7.34767 7.09281C7.34767 4.74797 9.25134 2.83666 11.5868 2.83666H76.7784C77.7024 2.83666 78.5683 3.13967 79.3042 3.66878L89.742 11.4049C89.9857 11.5751 90.2689 11.6706 90.5707 11.6706H119.172V20.1853Z" fill="#5C81FB"/>
</svg>
