<svg width="138" height="123" viewBox="0 0 138 123" fill="none" xmlns="http://www.w3.org/2000/svg">
<g clip-path="url(#clip0_39_740)">
<path d="M30.0798 0C20.2529 0 12.2481 8.13114 12.2481 18.0885C12.2481 28.0458 20.2529 36.1712 30.0798 36.1712C39.9068 36.1712 47.9259 28.0458 47.9259 18.0885C47.9259 8.13114 39.9068 0 30.0798 0ZM69 0C59.173 0 51.154 8.13114 51.154 18.0885C51.154 28.0458 59.173 36.1712 69 36.1712C78.827 36.1712 86.846 28.0458 86.846 18.0885C86.846 8.13114 78.827 0 69 0ZM107.9 0C98.0732 0 90.0713 8.13114 90.0713 18.0885C90.0713 28.0458 98.0703 36.1712 107.9 36.1712C117.73 36.1712 125.752 28.0458 125.752 18.0885C125.752 8.13114 117.727 0 107.9 0ZM30.0798 5.06246C37.2091 5.06246 42.9354 10.8646 42.9354 18.0885C42.9354 25.3123 37.2091 31.1145 30.0798 31.1145C22.9506 31.1145 17.2243 25.3123 17.2243 18.0885C17.2243 10.8617 22.9506 5.06246 30.0798 5.06246ZM69 5.06246C76.1293 5.06246 81.8555 10.8646 81.8555 18.0885C81.8555 25.3123 76.1293 31.1145 69 31.1145C61.8707 31.1145 56.1445 25.3123 56.1445 18.0885C56.1445 10.8617 61.8707 5.06246 69 5.06246ZM107.9 5.06246C115.029 5.06246 120.761 10.8646 120.761 18.0885C120.761 25.3123 115.029 31.1145 107.9 31.1145C100.771 31.1145 95.0618 25.3123 95.0618 18.0885C95.0618 10.8617 100.771 5.06246 107.9 5.06246ZM30.0798 39.4768C13.4544 39.4768 0 53.1298 0 69.9758V75.4832C0.00570342 76.8789 1.12643 78.0058 2.5038 78H29.5067C30.1797 78.0145 30.8298 77.7573 31.3089 77.2805C31.788 76.8037 32.0589 76.1507 32.0589 75.4717C32.0589 74.7897 31.788 74.1396 31.3089 73.6628C30.8298 73.186 30.1797 72.926 29.5067 72.9433H4.99049V69.9758C4.99049 55.846 16.1321 44.5335 30.0798 44.5335C32.98 44.5335 35.7519 45.0333 38.3298 45.9349C39.6331 46.3914 41.0532 45.6922 41.5038 44.3745C41.9572 43.0569 41.27 41.615 39.9696 41.1556C36.8783 40.072 33.5361 39.4768 30.0798 39.4768ZM69 39.4768C52.3745 39.4768 38.9202 53.1298 38.9202 69.9758V75.4832C38.9259 76.8702 40.0352 77.9971 41.4068 78H96.596C97.9648 77.9942 99.077 76.8702 99.0798 75.4832V69.9758C99.0798 53.1298 85.6255 39.4768 69 39.4768ZM107.9 39.4768C104.447 39.4768 101.139 40.0749 98.0475 41.1556C97.403 41.3579 96.8669 41.8173 96.5646 42.427C96.2595 43.0367 96.211 43.7446 96.4306 44.3919C96.6502 45.0391 97.1179 45.5679 97.7281 45.8569C98.3384 46.1458 99.0399 46.1747 99.6702 45.9349C102.248 45.0333 105.003 44.5335 107.9 44.5335C121.845 44.5335 133.01 55.8431 133.01 69.9758V72.9433H108.49C107.817 72.9289 107.167 73.186 106.688 73.6628C106.209 74.1367 105.938 74.7897 105.938 75.4717C105.938 76.1536 106.209 76.8037 106.688 77.2805C107.167 77.7544 107.817 78.0145 108.49 78H135.493C136.874 78.0058 137.994 76.8789 138 75.4832V69.9758C138 53.1298 124.526 39.4739 107.9 39.4768ZM69 44.5335C82.9449 44.5335 94.0893 55.8431 94.0893 69.9758V72.9433H43.9106V69.9758C43.9106 55.8431 55.0523 44.5335 69 44.5335Z" fill="#5C81FB"/>
</g>
<path d="M30.5 87L33.3064 95.6373H42.3882L35.0409 100.975L37.8473 109.613L30.5 104.275L23.1527 109.613L25.9591 100.975L18.6118 95.6373H27.6936L30.5 87Z" fill="#5C81FB"/>
<path d="M70.5 98L73.3064 106.637H82.3882L75.0409 111.975L77.8473 120.613L70.5 115.275L63.1527 120.613L65.9591 111.975L58.6118 106.637H67.6936L70.5 98Z" fill="#5C81FB"/>
<path d="M110.5 86L113.306 94.6373H122.388L115.041 99.9754L117.847 108.613L110.5 103.275L103.153 108.613L105.959 99.9754L98.6118 94.6373H107.694L110.5 86Z" fill="#5C81FB"/>
<defs>
<clipPath id="clip0_39_740">
<rect width="138" height="78" fill="white"/>
</clipPath>
</defs>
</svg>
