<svg width="116" height="116" viewBox="0 0 116 116" fill="none" xmlns="http://www.w3.org/2000/svg">
<g clip-path="url(#clip0_37_730)">
<path d="M106.321 17.2529C104.63 17.2529 102.961 17.6279 101.434 18.3529C100.962 18.5766 100.446 18.6905 99.9221 18.6843C99.0708 18.6594 98.2319 18.4647 97.4531 18.1126C96.0528 17.5264 94.5511 17.2219 93.0328 17.2198C89.8968 17.1328 86.9223 18.5973 85.0767 21.1348C81.8848 25.6816 83.6682 31.3345 86.419 35.1397C86.4293 35.3116 86.4273 35.4856 86.4148 35.6576C85.7023 49.2648 91.645 52.5894 92.8443 53.1176L92.9665 53.1715L93.0929 53.215C93.5589 53.3828 94.0498 53.4677 94.5428 53.4698C97.0326 53.4698 98.9155 51.3466 98.9445 48.5211C98.959 47.386 99.0729 46.2571 99.2883 45.1426C99.3132 45.0225 99.3422 44.8754 99.3753 44.7097C99.483 44.1649 99.5866 43.6968 99.686 43.2929C99.7854 43.6968 99.889 44.1649 99.9967 44.7097C100.03 44.8754 100.059 45.0204 100.084 45.1426C100.299 46.2571 100.413 47.386 100.428 48.5191C100.457 51.3445 102.339 53.4677 104.829 53.4677C105.324 53.4677 105.817 53.3807 106.283 53.2129L106.408 53.1694L106.528 53.1156C107.727 52.5874 113.67 49.2627 112.957 35.6555C112.945 35.4836 112.943 35.3116 112.951 35.1376C115.702 31.3345 117.485 25.6816 114.293 21.1327C113.139 19.5149 111.482 18.3239 109.581 17.7459C108.527 17.4166 107.427 17.2488 106.321 17.2529ZM111.327 23.2166C113.465 26.2616 111.979 30.3257 109.972 33.0704C109.426 33.8844 109.2 34.8725 109.336 35.844C109.954 47.6429 105.065 49.7992 105.065 49.7992C104.989 49.8282 104.91 49.8427 104.829 49.8427C104.108 49.8427 104.052 48.4528 104.052 48.4528C104.032 47.0919 103.893 45.7351 103.632 44.4011C103.34 43.007 102.58 38.2179 100.32 37.758C100.111 37.7062 99.8952 37.6772 99.6798 37.671C99.4623 37.6793 99.2469 37.7083 99.0356 37.7621C96.7902 38.2448 96.0342 43.0111 95.7421 44.4011C95.4832 45.7371 95.3424 47.0939 95.3217 48.4528C95.3217 48.4528 95.2657 49.8427 94.5449 49.8427C94.4641 49.8427 94.3833 49.8261 94.3088 49.7992C94.3088 49.7992 89.4183 47.6429 90.0376 35.844C90.1743 34.8725 89.9465 33.8844 89.4017 33.0704C87.3966 30.3257 85.9094 26.2616 88.0471 23.2166C89.2215 21.6568 91.0837 20.7702 93.0349 20.8448C94.0706 20.8469 95.0959 21.054 96.0508 21.4559C97.2729 21.9944 98.5882 22.2844 99.9242 22.3093C100.989 22.3155 102.041 22.0814 103.002 21.6216C104.04 21.1306 105.173 20.8759 106.321 20.8779C107.056 20.8759 107.785 20.9856 108.487 21.2031C109.628 21.5429 110.629 22.2513 111.327 23.2166Z" fill="#5C81FB"/>
<path d="M3.62694 116H64.3425C65.3036 116 66.2254 115.619 66.9068 114.939C67.5883 114.26 67.9674 113.338 67.9674 112.375V83.375H69.7798C70.4944 83.375 71.1945 83.1637 71.7911 82.766L77.1642 79.1845C78.2102 78.5196 78.844 77.3658 78.844 76.125H83.198L107.572 100.442C108.251 101.119 109.173 101.5 110.132 101.5H110.438C111.404 101.5 112.327 101.115 113.007 100.433C115.058 98.3763 116.141 95.5467 115.988 92.6467C115.857 89.8275 114.668 87.1616 112.659 85.1792L91.6802 64.4836C91.0029 63.8145 90.0874 63.4396 89.1345 63.4396H64.5331V59.8146H75.2171C76.1782 59.8146 77.1 59.4334 77.7814 58.754C78.4629 58.0746 78.842 57.1528 78.842 56.1896V52.5646C78.842 51.6034 78.4608 50.6816 77.7814 50.0001C77.102 49.3186 76.1803 48.9396 75.2171 48.9396H57.0928C56.1316 48.9396 55.2099 49.3207 54.5284 50.0001C53.8469 50.6796 53.4679 51.6014 53.4679 52.5646V63.4396H49.5509L30.8155 44.8299C28.7877 42.8123 26.039 41.6813 23.1785 41.6896C20.3158 41.6979 17.5754 42.8413 15.5579 44.8713C14.8682 45.5652 14.4871 46.5077 14.5036 47.4875C14.5181 48.4673 14.9303 49.3974 15.6429 50.0685L42.2701 75.1411C42.9433 75.7729 43.8319 76.1271 44.7558 76.1271H46.2264C46.2243 77.3389 46.8271 78.4699 47.8338 79.1431L53.2711 82.7681C53.8676 83.1637 54.5657 83.3771 55.2824 83.3771H57.0948V105.127H10.8746V10.8771H58.725L48.2584 21.0706C46.0338 20.3062 43.6331 20.2089 41.3546 20.7909C39.074 21.3709 37.0151 22.6076 35.4264 24.3434L34.8381 24.9835C34.1981 25.6816 33.8542 26.6034 33.8853 27.55C33.9143 28.4966 34.3141 29.3956 34.9976 30.0502L47.5707 42.1204C48.246 42.7688 49.145 43.1313 50.0812 43.1313C50.1185 43.1313 50.1579 43.1313 50.1951 43.1292C51.1687 43.0981 52.0904 42.6756 52.7512 41.9589L53.3395 41.3188C54.8246 39.6865 55.852 37.6896 56.3201 35.5333C56.7883 33.3769 56.6785 31.1356 56.0032 29.0331L74.7158 10.875H80.8077C81.4705 10.875 82.123 10.6927 82.6906 10.3489C83.2581 10.005 83.72 9.50993 84.0266 8.92164L85.9094 5.29664C86.4936 4.17186 86.4501 2.82543 85.7914 1.74207C85.1348 0.660786 83.9582 0 82.6926 0H3.62487C2.66376 0 1.74201 0.381143 1.06053 1.06057C0.379058 1.74 0 2.66386 0 3.625V112.375C0 113.336 0.381129 114.258 1.06053 114.939C1.73994 115.621 2.66376 116 3.62694 116ZM57.0928 52.5625H75.2171V56.1875H60.9082V63.4375H57.0928V52.5625ZM44.7537 72.5L18.1264 47.4274C19.4666 46.0789 21.2873 45.3166 23.1888 45.3125C25.0903 45.3084 26.9152 46.0582 28.2616 47.4005L48.0575 67.0625H89.1345L110.103 87.7499C111.487 89.0486 112.301 90.8466 112.363 92.7441C112.425 94.6415 111.733 96.4871 110.436 97.875H110.13L84.6956 72.5H44.7537ZM3.62694 3.625H82.6947L80.8098 7.25H73.2493L51.6637 28.1942C52.6745 29.841 53.1261 31.7695 52.948 33.6939C52.7698 35.6182 51.9703 37.4307 50.6736 38.8621L50.0854 39.5021L37.5122 27.4319L38.1005 26.7919C39.4572 25.3087 41.2966 24.3538 43.2913 24.1031C45.286 23.8525 47.3035 24.3206 48.9834 25.4247L67.6463 7.25H7.25388V108.75H60.7197V79.75H55.2824L49.8451 76.125H75.2192L69.7819 79.75H64.3446V112.375H3.62901L3.62694 3.625Z" fill="#5C81FB"/>
</g>
<defs>
<clipPath id="clip0_37_730">
<rect width="116" height="116" fill="white"/>
</clipPath>
</defs>
</svg>
