<svg width="217" height="161" viewBox="0 0 217 161" fill="none" xmlns="http://www.w3.org/2000/svg">
<path d="M92.649 0H1.50584C0.673667 0 0 0.671492 0 1.50098V92.3498C0 93.1793 0.673667 93.8508 1.50584 93.8508H55.4784C54.9633 117.077 42.0051 138.209 21.3988 149.269L4.7553 158.196C4.16088 158.512 3.84386 159.183 4.042 159.855C4.20051 160.526 4.79492 161 5.46859 161H25.2823C63.2454 161 94.1549 130.19 94.1549 92.3498V1.50098C94.1549 0.677134 93.4812 0 92.649 0Z" fill="#D6D6D6" fill-opacity="0.3"/>
<path d="M215.494 0H124.351C123.519 0 122.845 0.671492 122.845 1.50098V92.3498C122.845 93.1793 123.519 93.8508 124.351 93.8508H178.324C177.808 117.077 164.85 138.209 144.244 149.269L127.6 158.196C127.006 158.512 126.689 159.183 126.887 159.855C127.046 160.526 127.64 161 128.314 161H148.127C186.091 161 217 130.19 217 92.3498V1.50098C217 0.677134 216.326 0 215.494 0Z" fill="#D6D6D6" fill-opacity="0.3"/>
</svg>
