<svg width="22" height="16" viewBox="0 0 22 16" fill="none" xmlns="http://www.w3.org/2000/svg">
<path d="M20.1268 3.13377C20.0192 2.70402 19.8002 2.31026 19.4917 1.99226C19.1833 1.67427 18.7964 1.44331 18.3701 1.32271C16.8126 0.942383 10.5825 0.942383 10.5825 0.942383C10.5825 0.942383 4.35241 0.942383 2.79489 1.35893C2.36861 1.47953 1.9817 1.71049 1.67325 2.02849C1.3648 2.34648 1.14572 2.74024 1.03816 3.17C0.753108 4.75066 0.613675 6.35413 0.621611 7.96027C0.611451 9.5785 0.750892 11.1942 1.03816 12.7868C1.15675 13.2032 1.38073 13.582 1.68846 13.8865C1.99619 14.1911 2.37728 14.4111 2.79489 14.5254C4.35241 14.9419 10.5825 14.9419 10.5825 14.9419C10.5825 14.9419 16.8126 14.9419 18.3701 14.5254C18.7964 14.4048 19.1833 14.1738 19.4917 13.8558C19.8002 13.5378 20.0192 13.1441 20.1268 12.7143C20.4097 11.1456 20.5491 9.55431 20.5434 7.96027C20.5535 6.34204 20.4141 4.72634 20.1268 3.13377V3.13377Z" stroke="white" stroke-linecap="round" stroke-linejoin="round"/>
<path d="M8.54492 10.9212L13.7517 7.96012L8.54492 4.99902V10.9212Z" stroke="white" stroke-linecap="round" stroke-linejoin="round"/>
</svg>
